<svg width="59" height="61" viewBox="0 0 59 61" fill="none" xmlns="http://www.w3.org/2000/svg">
<path d="M16.7856 2.04887L23.6731 0.937988V4.04845H26.3392L30.5605 5.38151L32.5601 4.04845L33.671 5.38151H37.6701H40.7806L45.6685 14.7129L50.5564 19.823L52.3338 22.9334L55.6664 20.4895L58.3325 19.823L57.4438 23.8221L53.2225 31.1539L48.1124 37.3749L49.2233 40.9297L50.5564 45.5954L44.3354 48.928L45.6685 52.705L43.2245 54.0381L40.7806 57.1485L36.5593 58.9259L32.5601 60.0368L30.5605 57.1485L26.3392 51.5941L25.0061 47.8171L26.3392 43.1514L23.6731 37.3749L21.4513 34.0422L21.4513 29.5987H18.3408L16.7856 27.8213L12.5642 28.9322L7.89855 29.5987L3.89938 24.933L1.45544 20.4895L3.89938 16.9347L3.89938 12.269L7.89855 8.2698L9.45378 5.38151L13.453 2.04887H16.7856Z" stroke="white"/>
</svg>
