<svg width="61" height="67" viewBox="0 0 61 67" fill="none" xmlns="http://www.w3.org/2000/svg">
<path d="M16.4916 14.4265L12.6792 15.3987L11.3548 18.8594L11.3651 22.1238L11.3767 25.7723L8.99508 26.7399L9.0091 31.1565L9.02007 34.6129L6.34499 33.2772L3.38801 33.2866L1.10666 35.7902L1.11946 39.8227L2.09283 45.9644L2.10746 50.573L5.35242 51.1388L10.3156 52.0831L13.9354 50.5354L14.6905 48.0367L18.7016 49.5602L20.2327 51.0915L21.385 53.4882L23.8635 53.0003L23.1095 55.883L23.8827 59.049L24.7469 60.8705L25.3235 62.2129L26.182 62.2101L27.3236 61.2464L27.8947 60.8605L29.032 58.5526L30.5551 57.5876L33.4137 56.6184L35.6975 54.883L37.6006 53.4367L39.039 55.8325L38.5676 57.5622L39.7153 58.5187L41.8077 56.5918L41.8223 61.2004L42.4001 62.9268L40.8739 62.9316L39.0631 63.4174L41.8342 64.9448L42.7917 66.0939L45.0819 66.3747L46.0349 66.0836L46.0312 64.9315L45.0694 62.4382L43.922 61.5777L43.9159 59.6575L46.0144 59.6508L48.3037 59.6436L49.6294 56.567L48.2824 52.9227L51.1379 50.9934L54.3761 49.4469L55.8892 45.3136L56.3573 42.5277L54.9137 38.4998L54.3353 36.5814L56.8123 35.6134L58.1544 37.7214L58.1477 35.6091L56.8044 33.1171L58.1313 30.4245L59.6471 27.1552L58.1117 24.2797L56.7648 20.6355L54.2847 20.6434L53.6996 16.6127L54.8369 14.3048L56.7446 14.2987L58.0831 15.2546L59.6135 16.5939L58.0746 12.5663L55.781 11.2294L54.8168 7.96801L52.3252 4.32743L50.9825 2.02739L49.4654 4.91259L49.4709 6.6408L48.1398 7.9892L45.8535 8.95659L44.907 11.2639L42.2362 11.2724L38.8949 10.4189L37.4626 9.94335L35.5613 11.9657L34.231 13.6021L31.3664 12.6511L28.8949 15.3473L25.1718 14.399L21.8308 13.6415L21.2469 9.99482L18.5803 11.3475L16.4916 14.4265Z" stroke="white"/>
<path d="M48.3141 62.908L48.6981 63.6749L50.0326 63.3826L51.5572 62.8977L52.3182 62.2232L53.0779 61.1646L53.8392 60.5861L54.4084 59.6242L54.0257 59.2414L55.3565 57.7969L54.0211 57.8012L52.4995 59.2462L50.692 60.7882L49.647 62.1356L48.6932 62.1387L48.3141 62.908Z" stroke="white"/>
<path d="M56.7635 50.3035C56.8394 50.1496 57.1757 49.9181 57.3343 49.8216L57.6232 50.6848L57.3389 51.2618L57.3413 52.0299L58.1986 51.6431L58.2013 52.5072L57.3429 52.5099L56.7745 53.7599L56.3902 52.897L56.3863 51.6489C56.4804 51.2645 56.6877 50.4573 56.7635 50.3035Z" stroke="white"/>
<path d="M57.4462 55.0059L57.0671 55.7753L57.6376 55.1974L58.2099 55.1955L58.5914 55.1943L59.2564 54.3281L59.4447 53.5594L59.2518 52.8879L58.7764 53.3695L58.2071 54.3314L57.4462 55.0059Z" stroke="white"/>
<path d="M48.3205 64.9242L46.7013 65.6975L48.7029 65.2111L50.3215 64.2458L48.3205 64.9242Z" stroke="white"/>
<path d="M54.9838 60.5825L54.033 61.5456L54.4115 60.5843L54.9808 59.6224L55.931 58.4672L57.6449 57.5016L55.6472 59.2362L55.6497 60.0043L55.366 60.7733L54.9838 60.5825Z" stroke="white"/>
<path d="M27.6152 62.9737L27.9029 63.4528L29.046 62.9691L28.3741 61.6271L27.6116 61.8215L27.6152 62.9737Z" stroke="white"/>
</svg>
