<svg width="71" height="66" viewBox="0 0 71 66" fill="none" xmlns="http://www.w3.org/2000/svg">
<path d="M41.6499 44.3078L40.1834 45.7744M40.1834 45.7744L38.7169 47.2409L36.517 42.8413L33.3395 41.3747H28.9399L23.5626 42.8413L19.8963 45.7744L14.7634 47.2409L10.8526 49.6851H7.91953L6.69742 47.2409L7.91953 44.3078L4.74203 39.6638L2.2978 34.042L1.07568 28.9092L2.2978 24.754L9.14165 20.5988L13.2968 17.6657L14.7634 13.0217L16.4743 14.2438L17.9409 11.5551L21.1184 8.62204L23.5626 6.66665L26.0068 8.62204H28.9399L27.7178 6.66665L30.4065 3.73358H33.3395V1.04492L38.7169 3.73358H41.6499L38.7169 8.62204L44.3386 11.5551L48.4938 14.2438L50.4492 8.62204V3.73358L53.1378 1.04492L54.3599 8.62204L58.7595 11.5551V16.4436L62.6703 20.5988L65.6034 24.754L68.5365 31.109L69.7586 35.9974L67.3144 42.8413L62.6703 49.6851L60.9594 54.5736L58.7595 53.5959L54.3599 56.2846L53.1378 53.5959L50.4492 56.2846L45.8051 53.5959V49.6851L43.3609 47.9742L41.6499 47.2409L40.1834 45.7744ZM57.293 59.9509V62.6396L54.3599 64.5949L53.1378 62.6396L51.6713 58.4844L57.293 59.9509Z" stroke="white"/>
</svg>
