<svg width="42" height="37" viewBox="0 0 42 37" fill="none" xmlns="http://www.w3.org/2000/svg">
<path d="M15.777 7.76352L18.6693 4.45198L22.8925 8.14049L20.0002 11.452L15.777 7.76352ZM41.4359 22.869L39.8336 21.4696L26.8751 36.3065L19.0325 29.4568L23.0584 24.8473L16.4966 19.1162L8.44483 28.3351L0.602217 21.4854L17.5866 2.03907L15.9843 0.639647L16.5431 -0.000183982L41.9949 22.2293L41.436 22.8691L41.4359 22.869ZM39.1938 20.9108L32.632 15.1797L20.2323 29.3767L26.7941 35.1078L39.1938 20.9108ZM31.991 14.6199L25.4292 8.88879L17.0563 18.4753L23.6182 24.2064L31.991 14.6199ZM24.7883 8.329L18.2264 2.5979L1.80088 21.4044L8.36272 27.1355L24.7883 8.329ZM22.9788 14.0535L25.8711 10.742L30.0942 14.4305L27.2019 17.742L22.9788 14.0535ZM20.1515 18.5819L21.303 19.5876L23.0769 17.5566L21.9254 16.5509L20.1515 18.5819ZM18.9529 18.6629L21.8452 15.3514L26.0684 19.0399L23.1761 22.3514L18.9529 18.6629ZM21.9437 20.1472L23.0952 21.1529L24.8691 19.1219L23.7176 18.1162L21.9437 20.1472ZM25.3298 14.979L27.1036 12.948L25.9522 11.9423L24.1783 13.9733L25.3298 14.979ZM25.9696 15.5378L27.1211 16.5435L28.895 14.5125L27.7435 13.5068L25.9696 15.5378ZM30.1816 20.3445L33.0739 17.0329L37.297 20.7214L34.4048 24.033L30.1816 20.3445ZM23.3285 29.4823L24.48 30.488L26.2539 28.457L25.1024 27.4513L23.3285 29.4823ZM22.1299 29.5633L25.0221 26.2518L29.2453 29.9403L26.353 33.2518L22.1299 29.5633ZM25.1207 31.0476L26.2722 32.0533L28.0461 30.0223L26.8946 29.0166L25.1207 31.0476ZM27.3552 24.8736L28.5067 25.8793L30.2806 23.8483L29.1291 22.8426L27.3552 24.8736ZM26.1565 24.9546L29.0488 21.6431L33.272 25.3316L30.3797 28.6431L26.1565 24.9546ZM29.1474 26.4389L30.2989 27.4446L32.0727 25.4136L30.9213 24.4079L29.1474 26.4389ZM32.5334 21.2706L34.3073 19.2396L33.1558 18.2339L31.3819 20.2649L32.5334 21.2706ZM33.1733 21.8295L34.3247 22.8352L36.0986 20.8042L34.9471 19.7985L33.1733 21.8295ZM4.89902 21.5116L6.05049 22.5173L7.82437 20.4863L6.67289 19.4806L4.89902 21.5116ZM3.70035 21.5926L6.59265 18.2811L10.8158 21.9696L7.92352 25.2811L3.70035 21.5926ZM6.6912 23.0769L7.84268 24.0826L9.61655 22.0516L8.46508 21.0459L6.6912 23.0769ZM8.9257 16.9029L10.0772 17.9086L11.8511 15.8776L10.6996 14.8719L8.9257 16.9029ZM7.72704 16.9839L10.6193 13.6724L14.8425 17.3609L11.9502 20.6724L7.72704 16.9839ZM10.7179 18.4682L11.8694 19.4739L13.6432 17.4429L12.4918 16.4372L10.7179 18.4682ZM12.9524 12.2942L14.1039 13.2999L15.8777 11.2689L14.7263 10.2632L12.9524 12.2942ZM11.7537 12.3752L14.646 9.06366L18.8692 12.7522L15.9769 16.0637L11.7537 12.3752ZM14.7446 13.8595L15.8961 14.8652L17.6699 12.8342L16.5185 11.8285L14.7446 13.8595ZM18.1306 8.69124L19.9045 6.66024L18.753 5.65454L16.9791 7.68554L18.1306 8.69124ZM18.7704 9.25007L19.9219 10.2558L21.6958 8.22477L20.5443 7.21907L18.7704 9.25007Z" fill="white"/>
</svg>
