<svg width="39" height="43" viewBox="0 0 39 43" fill="none" xmlns="http://www.w3.org/2000/svg">
<path d="M19.9674 1.04793C17.3281 2.63805 16.1657 5.90134 17.4571 8.5585C16.2792 8.5974 15.2276 9.10888 14.1528 9.75646C12.2348 10.912 11.1772 12.7951 11.0709 14.8665C10.8341 15.0091 10.6184 15.14 10.34 15.3069C7.63716 16.9239 7.10903 19.432 6.9317 20.1457L6.74189 20.9109C6.73322 20.947 6.72829 20.984 6.72722 21.0214C6.16427 21.174 5.6155 21.4066 5.09466 21.7204C2.31859 23.393 1.0808 26.9372 2.71987 29.6577C3.02381 30.1622 3.45872 30.5691 3.89892 30.9397C0.982395 32.8153 -0.320716 36.4907 1.49507 39.5045C3.34882 42.5813 7.5739 43.6497 10.6747 41.7816L28.8147 30.8524C31.9154 28.9842 32.9455 24.7496 31.0917 21.6728C30.4367 20.5856 29.5092 19.8206 28.4562 19.3565L35.0946 15.357C38.1954 13.4888 39.2255 9.25418 37.3717 6.17737C35.5559 3.16356 31.6978 2.59789 28.6764 4.29971C28.5545 3.7373 28.3982 3.16292 28.0941 2.65819C26.4552 -0.0619592 22.7433 -0.624496 19.9671 1.04811L19.9674 1.04793ZM20.5425 2.00258C22.8508 0.611891 25.853 1.09778 27.1396 3.23324C27.4441 3.73871 27.6602 4.57117 27.7316 5.19438C27.7488 5.38642 27.864 5.55576 28.0362 5.64265C28.2085 5.729 28.4131 5.72057 28.5776 5.62006L29.0551 5.33237C31.6574 3.76454 34.8955 4.2268 36.4172 6.75242C37.9389 9.27813 37.0682 12.8667 34.5196 14.4022L27.0158 18.9232C25.4286 18.6549 23.6965 18.9709 22.1997 19.8727L21.4688 20.3131C19.5879 19.439 17.4288 19.4939 15.5109 20.6494C14.436 21.297 13.4926 21.988 12.9077 23.0112C11.7446 21.4227 9.84157 20.6876 7.91556 20.834L8.02238 20.4034C8.22477 19.5875 8.57838 17.6598 10.9151 16.2615C11.282 16.0418 11.5298 15.8912 11.8698 15.6863C12.0344 15.5822 12.1323 15.3997 12.1289 15.2048C12.1266 13.3653 13.0124 11.7447 14.7279 10.7111C16.0509 9.91401 17.0046 9.45925 18.2358 9.71594C18.4527 9.76321 18.6766 9.67772 18.8067 9.49814C18.9366 9.31823 18.9477 9.07826 18.8345 8.88732L18.547 8.41015C17.2604 6.2747 18.234 3.39343 20.5425 2.00253L20.5425 2.00258ZM5.67002 22.6748C7.97861 21.2839 10.9808 21.7698 12.2674 23.9052L12.5549 24.3824C12.6708 24.5718 12.8881 24.6741 13.1077 24.643C13.3274 24.6123 13.5077 24.4542 13.5673 24.2404C13.9155 23.0317 14.7635 22.4014 16.0865 21.6043C17.802 20.5707 19.6487 20.5451 21.274 21.4067C21.4446 21.5009 21.6515 21.4993 21.8207 21.4027L22.7754 20.8276C25.378 19.2595 28.6158 19.722 30.1374 22.2476C31.6591 24.7732 30.7885 28.3619 28.2398 29.8974L10.0998 40.8265C7.55121 42.3621 3.97178 41.4547 2.45007 38.9289C0.928359 36.4032 2.03312 33.3245 4.63537 31.7567L5.11288 31.469C5.27864 31.3705 5.38172 31.1936 5.3859 31.0009C5.38954 30.8081 5.29367 30.6271 5.13194 30.5221C4.61433 30.1677 3.97919 29.5874 3.67484 29.0822C2.38825 26.9467 3.36181 24.0655 5.67006 22.6748L5.67002 22.6748Z" fill="white"/>
</svg>
