<svg width="18" height="43" viewBox="0 0 18 43" fill="none" xmlns="http://www.w3.org/2000/svg">
<path d="M16.6932 22.4459C16.425 22.4382 16.18 22.4459 15.926 22.4459C16.9642 20.9138 17.4535 18.7156 17.376 15.8644C17.3661 15.4908 17.0656 15.19 16.692 15.1794C16.3949 15.1711 16.1127 15.1794 15.8256 15.1872C16.9314 13.655 17.4564 11.4091 17.3742 8.45991C17.3643 8.08595 17.0635 7.78516 16.6892 7.77493C15.4929 7.72935 14.2954 7.81896 13.1192 8.0416C13.326 5.77303 12.095 3.34348 9.42548 0.812633C9.15384 0.554643 8.72779 0.554643 8.45615 0.812633C5.78853 3.34634 4.55684 5.77184 4.75593 8.0416C3.57981 7.82145 2.38258 7.73276 1.18685 7.77772C0.812893 7.78765 0.512108 8.08843 0.501875 8.4627C0.421565 11.4082 0.948088 13.6551 2.05601 15.19C1.76732 15.185 1.48391 15.1739 1.18591 15.1822C0.812258 15.1925 0.511783 15.4932 0.501861 15.8672C0.42527 18.7218 0.913034 20.925 1.95121 22.4515C1.69849 22.4515 1.45291 22.4394 1.18964 22.4459C0.814433 22.4543 0.5121 22.7557 0.501868 23.1309C0.402022 26.9204 1.29289 29.5711 3.15028 31.0089C4.21638 31.7993 5.51657 32.2105 6.84335 32.1767C7.31003 32.1758 7.77608 32.1361 8.23626 32.0585V42.1464C8.23626 42.5352 8.55131 42.8503 8.94016 42.8503C9.329 42.8503 9.64405 42.5352 9.64405 42.1464L9.64436 32.0593C10.1042 32.139 10.5699 32.1793 11.0366 32.1803C11.7058 32.1846 12.3715 32.0885 13.0122 31.8953C15.0957 31.2513 17.5441 29.2081 17.3761 23.1308C17.3661 22.7574 17.0666 22.457 16.6932 22.4458L16.6932 22.4459ZM15.9788 16.5832C15.9605 19.5746 15.2284 21.6243 13.8088 22.677C13.4407 22.9437 13.0308 23.1474 12.5961 23.2801C12.0618 23.4436 11.5043 23.5183 10.9455 23.5019C10.5077 23.4916 10.072 23.4395 9.64403 23.3471L9.64434 17.3953C10.7643 17.5944 11.9148 17.5377 13.0094 17.2285C13.4231 17.1004 13.8197 16.9227 14.1905 16.6992C14.7837 16.6257 15.3809 16.5869 15.9788 16.5832H15.9788ZM15.9788 9.17873C15.9605 12.2855 15.1784 14.3717 13.6513 15.3872C13.6308 15.3978 13.6113 15.4099 13.5908 15.4226C13.2826 15.622 12.9477 15.777 12.5964 15.8828C12.14 16.0208 11.6658 16.0918 11.1887 16.0939C10.6708 16.1076 10.1527 16.0639 9.64445 15.9637V13.0033C11.0237 12.2225 12.1193 11.0235 12.7722 9.57903C13.8194 9.30771 14.8973 9.17313 15.9789 9.17871L15.9788 9.17873ZM1.90202 9.17873C2.98296 9.17283 4.06025 9.30586 5.10737 9.57501C5.7601 11.021 6.85591 12.2219 8.23675 13.0033V15.9671C7.72419 16.0713 7.20106 16.1151 6.67857 16.0974C5.83673 16.1017 5.01029 15.8695 4.29403 15.4267L4.25682 15.404C2.7126 14.3872 1.92157 12.2945 1.90204 9.17876L1.90202 9.17873ZM8.23707 30.6261C6.78931 30.9923 5.25407 30.7262 4.01405 29.8939C2.63447 28.8263 1.9256 26.7934 1.90234 23.8467C2.45336 23.8538 2.96653 23.8848 3.44377 23.9353C4.86891 24.8346 6.59022 25.1381 8.23707 24.78V30.6261ZM8.23707 23.3472C7.80358 23.4402 7.36205 23.492 6.91894 23.5019C5.9223 23.5555 4.93622 23.2752 4.117 22.7053L4.08538 22.6808C2.65524 21.6349 1.92254 19.584 1.90333 16.5833C2.5018 16.5874 3.0993 16.6261 3.69315 16.6993C5.07828 17.4596 6.68766 17.7062 8.23712 17.3961L8.23707 23.3472ZM8.94035 11.7836C8.22808 11.3613 6.48666 10.1523 6.175 8.19408C5.89345 6.4353 6.82402 4.45663 8.94035 2.30927C11.0521 4.45321 11.9845 6.42879 11.7094 8.18788C11.4037 10.1374 9.65105 11.3613 8.94035 11.7836ZM12.5959 30.551C11.6328 30.8162 10.6197 30.8422 9.6439 30.6276L9.64421 24.7856C10.7624 25.0036 11.9162 24.95 13.0093 24.6287C13.5166 24.469 13.9981 24.2365 14.4388 23.9382C14.9501 23.8796 15.4642 23.8489 15.9786 23.8467C15.9569 27.609 14.8201 29.8633 12.5959 30.551L12.5959 30.551Z" fill="black"/>
</svg>
