<svg width="69" height="71" viewBox="0 0 69 71" fill="none" xmlns="http://www.w3.org/2000/svg">
<path d="M2.02942 55.2352L1.00265e-05 59.3224L1.07765e-05 63.7599L2.70589 63.7599L5.41177 66.0954L10.1471 66.0954L12.6275 64.9276L14.6569 61.6579L15.7843 59.3224L20.5196 58.1546L20.5196 55.8191L23.6765 56.9869L27.2843 55.8191L28.8627 53.25L30.2157 55.8191L32.6961 59.3224L34.7255 61.6579L37.8824 64.9276L36.8676 67.6135L32.6961 67.0296L37.8824 71L40.5882 64.9276L42.3922 62.3586L39.0098 59.9063L35.8529 56.9869L33.598 53.25L35.8529 51.4984L36.8676 55.2352L40.5882 56.9869L43.7451 61.6579L45.7745 66.0954L47.1275 69.3651L50.5098 71L50.5098 66.0954L50.5098 61.6579L54.3431 61.6579L57.5 59.3224L56.3725 53.25L59.5294 46.477L63.3627 50.6809L67.1961 46.477L69 39.9375L63.3627 37.1349L57.5 34.3322L56.3725 31.2961L52.3137 27.7928L50.5098 21.9539L52.3137 14.9474L50.5098 11.4441L49.1569 2.56907L45.7745 -8.27945e-06L40.5882 3.73684L35.8529 9.10855L31.5686 14.9474L27.2843 19.852L27.2843 25.2237L34.7255 23.3553L34.7255 31.2961L37.8824 29.8947L39.0098 25.2237L40.5882 21.9539L39.0098 19.852L40.5882 14.9474L43.7451 11.4441L43.7451 14.9474L43.7451 18.2171L45.7745 23.3553L47.1274 27.7928L43.7451 26.625L43.7451 29.8947L43.7451 32.6974L40.5882 32.6974L35.8529 34.3322L32.6961 32.6974L32.6961 29.8947L31.5686 26.625L29.3137 28.9605L30.2157 34.3322L27.2843 34.3322L23.6765 37.1349L19.3922 39.9375L15.7843 42.273L12.6275 41.1053L11.2745 42.273L12.6275 44.6086L14.6569 48.579L12.6275 53.25L3.38236 49.7467L2.02942 55.2352Z" fill="white"/>
<path d="M8.34314 31.2961L6.53922 34.3322L10.1471 34.3322L12.6275 32.6974L13.5294 28.6102L8.34314 27.7928L8.34314 31.2961Z" fill="white"/>
<path d="M14.6569 38.5362L11.2745 39.1201L12.1765 37.4852L14.6569 36.551L13.5294 35.2665L14.6569 33.5148L15.7843 32.6974L15.7843 29.8947L14.6569 27.7928L14.6569 26.625L15.7843 23.3553L17.5882 22.4211L19.0539 22.4211L17.5882 24.1727L19.3922 25.2237L17.5882 27.2089L18.6029 30.829L19.9559 34.3322L21.1961 35.2665L21.1961 37.1349L19.9559 37.1349L19.3922 39.1201L14.6569 38.5362Z" fill="white"/>
</svg>
