<svg width="32" height="39" viewBox="0 0 32 39" fill="none" xmlns="http://www.w3.org/2000/svg">
<path d="M25.204 34.0497C27.5528 33.605 29.2535 31.4703 29.0632 29.0332C29.0369 28.6965 28.9694 28.3703 28.8756 28.053C30.5558 27.1884 31.597 25.3868 31.4469 23.4653C31.3137 21.7597 30.2929 20.3496 28.8729 19.6208C29.0261 19.0825 29.1143 18.531 29.0698 17.9614C28.8657 15.3487 26.574 13.3889 23.9607 13.593C23.6456 13.6176 23.3393 13.6838 23.0382 13.7687C22.8641 13.5198 22.6746 13.2851 22.4599 13.077L22.4883 13.0316C22.5171 12.9862 22.5916 12.8838 22.6651 12.908L22.8202 12.9543C23.7483 13.3845 24.6782 13.0397 25.3707 12.0098C25.5338 11.7674 25.7614 11.607 26.0465 11.5319C26.6193 11.3826 27.1506 11.0244 27.6249 10.4665L29.3896 8.39551C29.6314 8.1127 29.7444 7.72134 29.7137 7.28985C29.679 6.89094 29.5055 6.52637 29.2379 6.29129L27.0959 4.40322C26.7103 4.0743 26.0967 3.81131 25.2728 3.62171C25.0471 3.56917 24.8502 3.4542 24.689 3.28038C23.845 2.37047 22.8729 2.17508 22.0822 2.70805L21.8776 2.81328C21.8079 2.84867 21.7184 2.75907 21.6829 2.71868L21.3378 2.32583C20.6385 1.52908 19.6662 1.26268 18.8006 1.63181L18.519 1.75185C18.3795 1.81177 18.232 1.79394 18.0804 1.69891L17.6158 1.40756C16.9145 0.967951 16.0871 0.955061 15.4013 1.37353L14.7137 1.79303C14.6808 1.81233 14.6131 1.85432 14.4916 1.76956L14.0499 1.46175C12.6992 0.519715 11.8538 1.00941 11.4708 1.38603C11.2725 1.58001 11.0985 1.67492 10.9529 1.66779C10.2496 1.63552 8.91627 1.73818 7.88848 2.79432C6.85809 3.85474 6.42188 5.57334 6.59377 7.90619L6.62482 8.29627L1.8074 8.67396L1.57348 5.6637C1.54782 5.33514 1.25942 5.08932 0.930856 5.11498C0.602297 5.14064 0.355542 5.42824 0.381202 5.75681L0.941443 12.9306C0.967102 13.2592 1.25551 13.505 1.58407 13.4793C1.91263 13.4536 2.15938 13.166 2.13372 12.8375L1.90163 9.86555L6.72085 9.48773L6.75035 9.85797C6.75572 9.9832 6.76388 10.1064 6.77336 10.2278C6.95475 12.5505 7.63514 14.1804 8.79477 15.0757C9.97788 15.9891 11.3446 15.8815 12.0514 15.7365C12.1953 15.707 12.3819 15.7735 12.6082 15.9352C12.9521 16.1808 13.5929 16.4396 14.4287 15.9873C14.3991 16.2706 14.3861 16.5582 14.409 16.852C14.4619 17.5292 14.668 18.1573 14.9733 18.7241L11.1484 21.5531C10.616 22.04 9.92825 22.338 9.21158 22.394L2.78069 22.8962L2.4497 18.6579C2.42404 18.3293 2.13563 18.0835 1.80706 18.1092C1.4785 18.1348 1.23175 18.4224 1.25741 18.751L1.99841 28.2393L2.34199 32.6425C2.36765 32.9711 2.65612 33.2178 2.98468 33.1921C3.31325 33.1665 3.55993 32.878 3.53427 32.5494L3.23689 28.7415L9.5006 28.2523C10.1884 28.1986 10.7816 28.4902 11.5329 28.8601L16.2303 31.5382C15.867 32.2882 15.679 33.1173 15.7454 33.9684C15.9495 36.5812 18.2412 38.5409 20.854 38.3369C23.188 38.1546 24.9891 36.3039 25.204 34.0495L25.204 34.0497ZM14.704 14.2246L14.3168 14.5971C13.6648 15.2214 13.4 15.033 13.3008 14.9624C12.7958 14.6002 12.2951 14.4667 11.8113 14.5653C11.1907 14.6927 10.289 14.7208 9.52324 14.1295C8.59069 13.4094 8.06286 11.9513 7.94164 9.77833L7.91131 9.39377L11.9765 9.07483C12.4262 10.9799 13.7789 11.8877 14.5986 12.2644C14.899 12.4018 15.2528 12.2702 15.3912 11.9705C15.5257 11.6703 15.3965 11.3169 15.0974 11.1779C14.3688 10.8441 13.5156 10.1447 13.1804 8.85568C16.0128 8.05849 19.1049 9.1243 19.1375 9.13614C19.4474 9.24728 19.7898 9.08667 19.9015 8.77673C20.0168 8.46358 19.8536 8.12521 19.5436 8.01263C19.458 7.98143 18.3085 7.58827 16.7516 7.42154C16.7529 7.41968 16.7535 7.41611 16.7548 7.41425C17.0078 7.05571 17.8155 6.87197 18.1675 6.8386C18.4951 6.80803 18.7784 6.57893 18.7069 6.18937C18.6769 5.86173 18.3882 5.61947 18.0599 5.64892C17.8943 5.66333 16.4201 5.81868 15.7805 6.72204C15.6441 6.915 15.5723 7.13111 15.5315 7.35653C14.5101 7.34909 13.4054 7.46121 12.3271 7.84898L10.6715 7.97886C11.0026 6.54535 12.4848 5.62836 12.5011 5.61859C12.7835 5.44887 12.8746 5.08183 12.7064 4.8002C12.5381 4.51713 12.1739 4.42403 11.8899 4.59182C11.7965 4.64727 9.73174 5.92174 9.45477 8.07418L7.81755 8.20262L7.78695 7.81456C7.64017 5.84117 7.96315 4.43204 8.74581 3.62785C9.44721 2.90666 10.3956 2.83788 10.8978 2.86149C11.3896 2.88444 11.8632 2.67483 12.3076 2.23881C12.3946 2.15304 12.6269 1.92558 13.3679 2.44136L13.8083 2.74928C14.2855 3.08221 14.8563 3.10632 15.3369 2.8128L16.0245 2.3933C16.4079 2.15991 16.7566 2.27917 16.9819 2.42011L17.4465 2.71146C17.9287 3.01376 18.4916 3.06433 18.9896 2.85077L19.2697 2.73084C19.6556 2.56683 20.0825 2.7067 20.4405 3.11499L20.7856 3.50785C21.2297 4.01364 21.8722 4.1587 22.4227 3.87732L22.6874 3.73657C22.8216 3.64712 23.1781 3.40848 23.8138 4.09396C24.1356 4.44049 24.5462 4.67969 25.0046 4.78656C25.613 4.92635 26.0938 5.11838 26.3143 5.30607L28.4485 7.18798C28.4727 7.20869 28.5144 7.28383 28.5245 7.39401C28.5818 7.56362 28.5043 7.59375 28.4823 7.62042L26.7167 9.69206C26.4039 10.0594 26.0767 10.2899 25.7447 10.3766C25.1776 10.5248 24.7058 10.8584 24.3798 11.3425C23.8582 12.1183 23.469 11.9379 23.2583 11.8449L23.0383 11.7728C22.4628 11.5838 21.8659 11.8186 21.5033 12.3639C20.6899 11.899 19.7453 11.6671 18.7762 11.7428C17.2317 11.8634 15.9296 12.7234 15.1538 13.938C14.993 14.0069 14.8379 14.0962 14.7041 14.2244L14.704 14.2246ZM12.4389 27.9737L12.0602 27.7899C11.2172 27.3746 10.4217 26.9816 9.40688 27.0609L3.14316 27.5501L2.87278 24.0879L9.30367 23.5857C10.285 23.509 11.2274 23.099 11.9053 22.4727L15.6672 19.6953C15.8 19.8393 15.941 19.9722 16.0906 20.0988L12.0572 23.6134C11.9121 23.7404 11.8388 23.9261 11.8532 24.1105C11.858 24.1715 11.8731 24.2334 11.8983 24.2928C11.9957 24.5295 12.2354 24.6775 12.4915 24.6604L17.3188 24.3216C17.3309 24.3386 17.3401 24.3578 17.3526 24.3748C17.0944 24.6183 16.868 24.8803 16.6736 25.1691L12.4079 25.5022C12.152 25.5222 11.9381 25.7042 11.8756 25.9533C11.8586 26.0175 11.8534 26.0822 11.8583 26.1449C11.8726 26.3281 11.9722 26.4988 12.1324 26.6017L16.0321 29.0958C16.1617 29.5533 16.3562 29.9832 16.6103 30.3762L12.4389 27.9737ZM16.0826 26.4151C15.9676 26.7922 15.9025 27.1801 15.8849 27.5831L14.2782 26.556L16.0826 26.4151ZM16.4573 21.3639C16.4503 21.5494 16.4292 21.7334 16.4438 21.9207C16.4777 22.3543 16.5721 22.7709 16.7133 23.1656L14.1852 23.3434L16.4573 21.3639ZM16.9356 33.876C16.8689 33.0214 17.1252 32.1907 17.6233 31.5093C17.9576 31.7761 18.331 32.0015 18.738 32.1744C19.0414 32.3042 19.3923 32.1626 19.5215 31.8586C19.651 31.5576 19.5092 31.2043 19.2053 31.076C17.9775 30.553 17.1503 29.4037 17.0466 28.0746C16.9614 26.9838 17.393 25.9625 18.1755 25.2274C18.5498 25.5319 18.9705 25.788 19.4379 25.9731C19.7451 26.0938 20.0924 25.944 20.2135 25.6374C20.3358 25.3322 20.185 24.9829 19.8778 24.8619C18.3354 24.2531 17.4375 22.5782 17.6784 20.9829C18.08 21.1142 18.4968 21.2111 18.9369 21.2302C19.2665 21.2438 19.5458 20.9895 19.5593 20.6593C19.5739 20.3232 19.318 20.0505 18.9884 20.0369C17.1963 19.9596 15.739 18.5497 15.5991 16.7587C15.4464 14.8024 16.9136 13.0867 18.8697 12.934C20.0515 12.8417 21.1668 13.3729 21.8957 14.2774C21.5088 14.5108 21.1427 14.7781 20.836 15.11C20.7189 15.2374 20.6671 15.4018 20.6796 15.5617C20.6909 15.7064 20.7545 15.8476 20.8697 15.9543C21.1123 16.1782 21.4901 16.1625 21.714 15.9204C22.0729 15.5318 22.5203 15.2227 23.0077 15.0273L23.0079 15.027C23.3401 14.8936 23.6928 14.812 24.0543 14.7838C26.0106 14.631 27.7269 16.0982 27.8796 18.0543C27.9107 18.4523 27.8533 18.8376 27.7557 19.2151C27.3675 19.128 26.9685 19.0705 26.5521 19.0848C26.2224 19.0959 25.9645 19.372 25.9756 19.7017C25.9754 19.7105 25.976 19.7193 25.9768 19.7286C26.0015 20.0449 26.2716 20.2892 26.5924 20.278C27.0621 20.2621 27.5135 20.3396 27.9299 20.4912C27.9305 20.4914 27.9308 20.492 27.9317 20.4922C27.9356 20.4936 27.9397 20.493 27.9433 20.4945C29.2089 20.9611 30.1445 22.129 30.2561 23.5579C30.3669 24.9766 29.6112 26.3103 28.3837 26.9672C28.1363 26.5553 27.8434 26.1689 27.4743 25.8419C27.2278 25.6243 26.8499 25.6464 26.6313 25.8931C26.411 26.1428 26.4335 26.5171 26.6826 26.7375C27.377 27.3517 27.7998 28.2009 27.872 29.1256C28.0098 30.8904 26.8238 32.4474 25.1545 32.849C25.0749 32.3485 24.9392 31.8627 24.7059 31.4121C24.5543 31.1183 24.1934 31.0044 23.9003 31.1562C23.6085 31.3075 23.4933 31.6662 23.6443 31.9603C23.8638 32.385 23.994 32.8414 24.0315 33.3211C24.1842 35.2767 22.7164 36.9916 20.7602 37.1444C18.804 37.2978 17.0884 35.8318 16.9357 33.8761L16.9356 33.876Z" fill="white"/>
</svg>
