<svg width="30" height="32" viewBox="0 0 30 32" fill="none" xmlns="http://www.w3.org/2000/svg">
<path d="M29.1273 19.5114C29.404 19.4562 29.6149 19.2315 29.6524 18.9518C29.6898 18.6723 29.5452 18.3999 29.2927 18.274C26.8515 17.0534 23.4751 17.6029 19.7243 19.6584C21.9495 16.9129 25.1165 13.5937 28.1944 12.978C28.4711 12.9229 28.6819 12.698 28.7194 12.4183C28.7567 12.1388 28.6122 11.8664 28.3599 11.7406C25.2578 10.1892 22.1919 11.0764 19.3759 12.7424C22.208 8.53095 24.1643 4.14185 23.0916 0.921919C23.0097 0.677545 22.7936 0.503013 22.5373 0.474869C22.2812 0.446589 22.0322 0.570025 21.8993 0.790658C19.8734 4.16723 16.5643 7.89409 13.0453 10.8679C14.5022 7.68225 14.7884 4.83503 13.7221 2.70226L13.7223 2.70242C13.5963 2.44992 13.324 2.30539 13.0444 2.34272C12.7649 2.38007 12.5401 2.59116 12.4851 2.86774C11.6333 7.12667 3.52378 13.5937 0.790191 14.5042C0.444254 14.6195 0.257396 14.9932 0.372703 15.3392C0.488016 15.6851 0.861749 15.872 1.2077 15.7566C3.77163 14.9027 10.6356 9.71567 13.0318 5.13189C13.3229 8.77642 10.4498 14.0795 5.19899 19.3303C4.94134 19.588 4.94134 20.0058 5.19899 20.2635C5.45681 20.5213 5.87462 20.5213 6.13228 20.2636C8.1148 18.3145 9.88399 16.16 11.4106 13.8363C15.5397 10.8275 19.1412 7.15566 22.0702 2.96945C21.9891 8.13839 15.4923 16.5036 8.9323 23.0636C8.67464 23.3213 8.67464 23.7391 8.93246 23.9969C9.19011 24.2546 9.60793 24.2546 9.86558 23.9969C12.3978 21.4738 14.7803 18.8044 17.0005 16.003C20.7842 13.0414 23.5528 11.8857 26.036 12.3328C22.1214 14.1945 18.7584 18.6585 16.4552 21.7649C14.7817 23.0124 13.2031 24.3822 11.7323 25.8636C11.4746 26.1213 11.4746 26.5391 11.7325 26.7969C11.9901 27.0546 12.4079 27.0546 12.6656 26.7969C17.9164 21.5461 23.2194 18.6731 26.864 18.9641C22.2803 21.3604 17.0936 28.2242 16.2393 30.7882L16.2394 30.7881C16.1241 31.134 16.311 31.5078 16.6569 31.6231C17.0027 31.7382 17.3765 31.5514 17.4918 31.2057C18.4024 28.4723 24.8695 20.3627 29.1282 19.5109L29.1273 19.5114Z" fill="white"/>
</svg>
