<svg width="63" height="69" viewBox="0 0 63 69" fill="none" xmlns="http://www.w3.org/2000/svg">
<path d="M7.59838 18.5411H2L6.14695 21.4303L9.04981 19.9857H11.9527L14.6482 23.2876L15.6849 29.2722L17.7584 35.2568L16.929 42.0669L18.5878 48.0515L21.4906 50.5279L23.5641 54.4489L28.3331 60.4335L29.5772 59.8144L24.6009 54.4489L25.0156 52.4884L32.0654 60.4335L33.3094 63.7354L41.1886 65.799L44.0915 64.7672L50.1046 65.799L52.5927 66.6245L57.9838 67.6563L59.0205 64.7672H55.2883L52.5927 62.7035H48.8605L50.7266 59.8144L48.8605 58.5762L46.5797 59.8144V62.7035H41.8107L39.7372 58.5762L41.1886 54.4489L46.5797 52.1789L50.7266 50.5279L54.0442 55.2744L55.2883 53.4171L52.5927 48.0515L55.2883 43.5115L54.6662 38.0428L56.2213 33.5027L57.9838 31.2327L60.3268 28.292L59.0205 28.034L57.9838 29.2722L56.2213 28.4467L55.8066 27.1053L53.3185 29.8913L54.0442 27.1053L55.2883 25.8671L57.2581 25.0417L57.9838 22.7717L59.0205 25.8671L61.6331 25.0417L61.9234 24.3194L59.0205 21.4303L55.2883 18.5411H50.1046L48.8605 20.5016L46.5797 19.3666H45.1282L43.0548 18.5411V19.3666L44.0915 21.4303V22.7717L46.165 23.2876V25.0417L45.1282 26.2799L46.5797 28.034V29.8913L44.0915 28.034L43.0548 26.2799L41.1886 27.1053L39.2188 25.8671L37.7674 26.2799L36.5233 24.7321L35.5903 24.3194L36.2123 21.4303L37.7674 19.9857H39.7372L41.1886 18.5411L39.7372 17.1998L38.9078 14.1043L41.1886 12.9692L43.0548 14.8265L41.8107 16.6838L44.0915 17.1998H47.3668L46.5797 12.9692L41.8107 10.6992H37.0417V6.36553L34.7609 1L31.4433 4.0955L24.6009 9.66739L22.5274 14.8265L16.929 10.6992L12.9894 8.22282L10.7086 10.6992L9.04981 12.9692L6.14695 14.8265L7.59838 18.5411Z" stroke="white"/>
</svg>
