<svg width="38" height="17" viewBox="0 0 38 17" fill="none" xmlns="http://www.w3.org/2000/svg">
<path d="M5.00812 9.52C5.89183 12.6933 8.76389 14.96 12.0042 14.96C13.7716 14.96 15.3917 14.28 16.7173 13.1467C17.601 14.3556 19.0002 15.1111 20.6203 15.1111C21.3568 15.1111 22.0932 14.96 22.756 14.5822C23.787 16.0933 25.4808 17 27.3218 17C29.8993 17 32.1086 15.1867 32.6977 12.6178C35.7171 12.1644 38 9.52 38 6.34666C38 2.87111 35.2016 -3.72931e-06 31.814 -3.43316e-06L4.63948 -1.05748e-06C2.06199 -8.32153e-07 -1.41275e-06 2.11556 -1.18157e-06 4.76C-9.43778e-07 7.48 2.28292 9.74667 5.0077 9.52L5.00812 9.52ZM16.4223 1.43555L17.4533 1.43555L15.1704 4.30667C14.8758 4.60889 14.9494 5.13778 15.244 5.36444C15.5386 5.66667 16.0541 5.59111 16.275 5.28889L16.8642 4.60889L17.3797 6.04444C17.5269 6.42222 17.9688 6.64889 18.337 6.49778C18.7052 6.34667 18.9261 5.89333 18.7789 5.51555L17.9688 3.24889L19.368 1.51111L23.6393 1.51111L23.6393 4.45778L21.43 6.12C21.1354 6.34667 21.0618 6.87555 21.2827 7.17778C21.5036 7.48 22.0191 7.55555 22.3137 7.32889L23.5656 6.34667L23.5656 9.97333C23.5656 10.4267 23.8602 10.7289 24.3021 10.7289C24.7439 10.7289 25.0385 10.4267 25.0385 9.97333L25.0385 8.00889L26.9532 9.29333C27.3214 9.52 27.7633 9.44444 27.9842 9.06667C28.2051 8.68889 28.1315 8.23555 27.7633 8.00889L25.0385 6.12L25.0385 1.43555L27.6896 1.43555L29.5307 3.17333L28.4997 4.83555C28.2788 5.21333 28.3524 5.66666 28.7206 5.89333C29.0888 6.12 29.5307 6.04444 29.7516 5.66666L30.5617 4.30666L31.8136 5.59111C32.1082 5.89333 32.55 5.89333 32.8446 5.59111C33.1392 5.28889 33.1392 4.83555 32.8446 4.53333L29.8252 1.58666L31.74 1.58666C34.3174 1.58666 36.4531 3.77777 36.4531 6.42222C36.4531 8.99111 34.4647 11.1822 31.9609 11.2578C31.5927 11.2578 31.2981 11.56 31.2981 11.9378C31.0772 14.0533 29.3098 15.5644 27.2478 15.5644C25.7013 15.5644 24.3021 14.6578 23.6393 13.2978C23.5656 13.0711 23.3447 12.9956 23.1238 12.92C22.9028 12.8444 22.6819 12.92 22.5346 13.0711C21.9455 13.5244 21.2827 13.7511 20.5463 13.7511C18.6316 13.7511 17.0851 12.1644 17.0851 10.2756C17.0851 10.0489 16.9378 9.82222 16.7905 9.67111C16.5696 9.52 16.3487 9.52 16.1277 9.52C15.7595 9.59556 15.3913 9.67111 15.0231 9.67111C12.8875 9.67111 11.12 7.85778 11.12 5.66667C11.12 3.47555 12.8875 1.66222 15.0231 1.66222L16.4223 1.66222L16.4223 1.43555ZM4.63948 1.43555L6.62783 1.43555L4.86041 4.68444C4.63948 5.06222 4.78677 5.51556 5.15498 5.74222C5.52319 5.96889 5.96505 5.81778 6.18598 5.44L6.70147 4.53333L7.36426 5.21333C7.65883 5.51556 8.10068 5.51556 8.39525 5.21333C8.68983 4.91111 8.68982 4.45778 8.39525 4.15556L7.4379 3.09778L8.39525 1.43555L11.4882 1.43555C10.4572 2.41778 9.79446 3.85333 9.79446 5.44C9.79446 6.64889 10.1627 7.70667 10.7518 8.61333L9.27897 10.2756C8.9844 10.5778 8.9844 11.0311 9.35261 11.3333C9.64718 11.6356 10.089 11.6356 10.3836 11.2578L11.7828 9.67111C12.7402 10.4267 13.9184 10.88 15.1704 10.88L15.8332 10.88C15.9068 11.1822 15.9804 11.4089 16.0541 11.7111C14.9494 12.7689 13.5502 13.2978 12.0774 13.2978C9.27897 13.2978 6.84876 11.2578 6.33326 8.38667C6.33326 8.16 6.18598 8.00889 6.03869 7.85778C5.89141 7.78222 5.67048 7.70667 5.44955 7.78222C5.22862 7.85778 4.93405 7.85778 4.71313 7.85778C2.9457 7.85778 1.54649 6.42222 1.54649 4.60889C1.47285 2.94667 2.87206 1.43555 4.63948 1.43555Z" fill="white"/>
</svg>
