<svg width="39" height="39" viewBox="0 0 39 39" fill="none" xmlns="http://www.w3.org/2000/svg">
<path d="M19.5 38.555C19.2392 38.555 19.0278 38.344 19.0278 38.0832V1.11634C19.0278 0.855574 19.2392 0.644531 19.5 0.644531C19.7607 0.644531 19.9721 0.855574 19.9721 1.11634V38.0832C19.9721 38.2083 19.9224 38.3285 19.8338 38.4167C19.7453 38.5053 19.6251 38.555 19.5 38.555L19.5 38.555Z" fill="white"/>
<path d="M19.4999 9.37215C19.3514 9.37215 19.2115 9.30202 19.1223 9.18316C18.9659 8.97475 19.008 8.67876 19.2168 8.52238L23.092 5.60533V5.60566C23.2994 5.46179 23.5835 5.50656 23.7363 5.70773C23.8894 5.90856 23.8571 6.19434 23.6629 6.356L19.7831 9.27768C19.7015 9.33892 19.602 9.37217 19.5 9.37217L19.4999 9.37215Z" fill="white"/>
<path d="M19.5001 9.37196C19.398 9.37196 19.2986 9.33871 19.2169 9.27747L15.3372 6.35579C15.2311 6.28237 15.16 6.16912 15.14 6.04169C15.1195 5.91461 15.1525 5.78455 15.2305 5.68216C15.3085 5.57977 15.4251 5.51359 15.5528 5.4991C15.6809 5.48462 15.8093 5.52281 15.9081 5.60545L19.7833 8.52249V8.52216C19.992 8.67855 20.0342 8.97454 19.8778 9.18295C19.7885 9.30181 19.6486 9.37193 19.5001 9.37193L19.5001 9.37196Z" fill="white"/>
<path d="M19.4999 14.644C19.3514 14.644 19.2115 14.5742 19.1223 14.4553C18.9659 14.2466 19.008 13.9509 19.2168 13.7945L22.412 11.3825C22.6208 11.2261 22.9164 11.2683 23.0728 11.477C23.2292 11.6854 23.1871 11.9814 22.9787 12.1378L19.7594 14.5495C19.6843 14.6064 19.5941 14.639 19.4999 14.644L19.4999 14.644Z" fill="white"/>
<path d="M19.4999 14.6442C19.3978 14.6442 19.2984 14.6113 19.2168 14.5497L16.0215 12.1426H16.0212C15.8127 11.9862 15.7706 11.6902 15.927 11.4818C16.0834 11.2734 16.379 11.2309 16.5878 11.3873L19.783 13.7944V13.7948C19.9918 13.9512 20.0339 14.2468 19.8775 14.4555C19.7883 14.5744 19.6484 14.6442 19.4999 14.6442L19.4999 14.6442Z" fill="white"/>
<path d="M22.6718 27.6762C22.5697 27.6762 22.4703 27.643 22.3886 27.5817L19.193 25.1697C18.9846 25.0133 18.9421 24.7177 19.0985 24.5089C19.2549 24.3005 19.5509 24.2584 19.7593 24.4148L22.9546 26.8268L22.9549 26.8265C23.1633 26.9828 23.2058 27.2788 23.0494 27.4872C22.9602 27.6061 22.8202 27.6762 22.6717 27.6762H22.6718Z" fill="white"/>
<path d="M16.2812 27.6712C16.1327 27.6712 15.9928 27.601 15.9035 27.4822C15.7471 27.2738 15.7893 26.9778 15.998 26.8214L19.1933 24.4143C19.402 24.2579 19.6977 24.3 19.8541 24.5085C20.0105 24.7172 19.9683 25.0129 19.7596 25.1692L16.5643 27.5764V27.5767C16.4827 27.6379 16.3832 27.6712 16.2812 27.6712H16.2812Z" fill="white"/>
<path d="M27.1936 23.1493C27.0448 23.1493 26.9052 23.0791 26.816 22.9603L24.4089 19.765H24.4086C24.2522 19.5563 24.2946 19.2606 24.5031 19.1042C24.7118 18.9478 25.0074 18.99 25.1638 19.1984L27.571 22.3937L27.5713 22.394C27.7277 22.6024 27.6852 22.8984 27.4768 23.0548C27.3951 23.116 27.2957 23.1493 27.1936 23.1493L27.1936 23.1493Z" fill="white"/>
<path d="M24.7864 19.9538C24.6844 19.9538 24.585 19.9209 24.5033 19.8593C24.2949 19.703 24.2524 19.4073 24.4088 19.1986L26.8159 16.0033H26.8162C26.9726 15.7949 27.2683 15.7524 27.477 15.9088C27.6854 16.0652 27.7279 16.3612 27.5715 16.5696L25.1642 19.7652C25.0749 19.8841 24.9353 19.9539 24.7865 19.9539L24.7864 19.9538Z" fill="white"/>
<path d="M11.7592 23.1493C11.6571 23.1493 11.5577 23.116 11.476 23.0548C11.2673 22.8984 11.2252 22.6024 11.3816 22.394L13.7887 19.1987V19.1984C13.9451 18.99 14.2411 18.9478 14.4495 19.1042C14.6582 19.2606 14.7003 19.5563 14.5439 19.765L12.1368 22.9603C12.0476 23.0791 11.9077 23.1493 11.7592 23.1493H11.7592Z" fill="white"/>
<path d="M14.1663 19.9538C14.0178 19.9538 13.8779 19.884 13.7887 19.7652L11.3816 16.5699V16.5696C11.2252 16.3612 11.2673 16.0652 11.476 15.9088C11.6845 15.7524 11.9804 15.7949 12.1368 16.0033L14.5439 19.1986C14.7003 19.4073 14.6582 19.703 14.4495 19.8593C14.3678 19.9209 14.2687 19.9538 14.1663 19.9538L14.1663 19.9538Z" fill="white"/>
<path d="M27.1936 16.7681H27.1274L23.1674 16.2064C23.0423 16.189 22.929 16.1225 22.8529 16.0217C22.7769 15.9206 22.744 15.7936 22.7614 15.6684C22.798 15.4077 23.039 15.2259 23.2994 15.2625L27.2595 15.8242C27.5202 15.8426 27.7168 16.0685 27.6987 16.3292C27.6802 16.59 27.4541 16.7865 27.1936 16.7681H27.1936Z" fill="white"/>
<path d="M23.2338 16.1964C22.9968 16.1987 22.7949 16.0248 22.7617 15.7904L22.2 11.8257C22.1634 11.5649 22.3452 11.3239 22.6059 11.2874C22.8667 11.2508 23.1077 11.4326 23.1439 11.6933L23.7056 15.6581C23.7422 15.9162 23.5627 16.1549 23.3046 16.1914L23.2338 16.1964Z" fill="white"/>
<path d="M16.2811 27.6711C16.0441 27.6734 15.8422 27.4996 15.809 27.2652L15.2522 23.3051C15.2157 23.0443 15.3974 22.8033 15.6579 22.7668C15.9186 22.7306 16.1596 22.9123 16.1962 23.1728L16.7483 27.152C16.7848 27.4098 16.6051 27.6488 16.3473 27.6853L16.2811 27.6711Z" fill="white"/>
<path d="M15.724 23.7112H15.6578L11.6977 23.1495H11.698C11.5726 23.1318 11.4597 23.0653 11.3836 22.9645C11.3072 22.8634 11.2743 22.7367 11.2921 22.6112C11.3286 22.3508 11.5693 22.1691 11.8301 22.2053L15.7901 22.767C16.0509 22.7854 16.2474 23.0116 16.229 23.272C16.2109 23.5328 15.9847 23.7293 15.7239 23.7112H15.724Z" fill="white"/>
<path d="M22.6716 27.6763H22.6054C22.3516 27.6397 22.1735 27.407 22.2044 27.1525L22.7661 23.1877V23.1874C22.8023 22.927 23.0433 22.7452 23.3041 22.7815C23.5649 22.818 23.7466 23.059 23.71 23.3198L23.1484 27.2845C23.1085 27.5153 22.9057 27.6819 22.6716 27.6763H22.6716Z" fill="white"/>
<path d="M23.2338 23.7112C22.973 23.7293 22.7469 23.5328 22.7287 23.272C22.7103 23.0116 22.9069 22.7854 23.1676 22.767L27.1277 22.2053C27.3885 22.1691 27.6291 22.3508 27.6657 22.6112C27.7022 22.872 27.5205 23.113 27.2597 23.1495L23.2996 23.7063L23.2338 23.7112Z" fill="white"/>
<path d="M11.7591 16.7681C11.4984 16.7865 11.2722 16.59 11.2541 16.3292C11.236 16.0685 11.4325 15.8426 11.693 15.8242L15.653 15.2625C15.9138 15.2259 16.1548 15.4077 16.191 15.6684C16.2276 15.9292 16.0458 16.1702 15.7854 16.2064L11.8253 16.7681H11.7591Z" fill="white"/>
<path d="M15.724 16.1968H15.6578C15.5324 16.1803 15.4184 16.1141 15.3421 16.0127C15.2657 15.9117 15.2331 15.7839 15.2522 15.6585L15.8139 11.6984V11.6987C15.8501 11.438 16.0911 11.2562 16.3518 11.2928C16.6126 11.329 16.7943 11.57 16.7578 11.8307L16.1961 15.7908C16.1629 16.0252 15.961 16.1991 15.724 16.1968L15.724 16.1968Z" fill="white"/>
<path d="M23.3754 33.6937C23.2726 33.6923 23.1732 33.6574 23.0922 33.5946L19.217 30.6778C19.0083 30.5215 18.9661 30.2255 19.1225 30.0171C19.2789 29.8083 19.5749 29.7662 19.7833 29.9226L23.6631 32.8443C23.8264 32.9667 23.8925 33.1801 23.827 33.3733C23.7615 33.5666 23.5794 33.696 23.3753 33.6937L23.3754 33.6937Z" fill="white"/>
<path d="M15.6244 33.6932C15.4203 33.6955 15.2382 33.5661 15.1727 33.3729C15.1072 33.1796 15.1734 32.9662 15.3367 32.8438L19.2164 29.9221C19.4248 29.7657 19.7208 29.8078 19.8772 30.0166C20.0336 30.225 19.9915 30.521 19.7827 30.6774L15.9075 33.5944V33.5941C15.8265 33.657 15.7271 33.6919 15.6244 33.6932L15.6244 33.6932Z" fill="white"/>
<path d="M37.9838 20.0722H1.01697C0.75621 20.0722 0.545166 19.8608 0.545166 19.6001C0.545166 19.3393 0.75621 19.1279 1.01697 19.1279H37.9838C38.2446 19.1279 38.4557 19.3393 38.4557 19.6001C38.4557 19.8608 38.2446 20.0722 37.9838 20.0722Z" fill="white"/>
<path d="M33.1223 23.9519C32.9735 23.9519 32.8339 23.8818 32.7446 23.7629L29.823 19.8832C29.6666 19.6747 29.7087 19.3788 29.9175 19.2224C30.1259 19.066 30.4219 19.1081 30.5782 19.3169L33.4953 23.1921H33.495C33.6523 23.3992 33.6125 23.6948 33.4054 23.8529C33.3244 23.9157 33.225 23.9506 33.1223 23.952L33.1223 23.9519Z" fill="white"/>
<path d="M30.2001 20.0721C30.0981 20.0721 29.9986 20.0388 29.917 19.9776C29.7082 19.8212 29.6661 19.5252 29.8225 19.3168L32.7442 15.4371C32.9058 15.2428 33.1916 15.2105 33.3924 15.3636C33.5936 15.5164 33.6384 15.8005 33.4945 16.008L30.5778 19.8832C30.4886 20.002 30.3486 20.0722 30.2001 20.0722L30.2001 20.0721Z" fill="white"/>
<path d="M5.87782 23.9515C5.7751 23.9502 5.67567 23.9153 5.59467 23.8524C5.38758 23.6943 5.34774 23.3987 5.50512 23.1916L8.42216 19.3164H8.42183C8.57823 19.1076 8.87421 19.0655 9.08262 19.2219C9.29136 19.3783 9.3335 19.6743 9.17711 19.8827L6.25543 23.7624C6.16621 23.8813 6.02661 23.9514 5.87779 23.9514L5.87782 23.9515Z" fill="white"/>
<path d="M8.79992 20.0722C8.65144 20.0722 8.51151 20.002 8.42228 19.8832L5.50524 16.008H5.50557C5.36169 15.8005 5.40646 15.5164 5.60763 15.3636C5.80846 15.2105 6.09424 15.2428 6.2559 15.4371L9.17758 19.3168C9.33397 19.5252 9.29183 19.8212 9.08309 19.9776C9.00144 20.0388 8.90201 20.0721 8.79994 20.0721L8.79992 20.0722Z" fill="white"/>
<path d="M32.5694 33.1411C32.4472 33.1395 32.3307 33.0904 32.2438 33.0042L6.09497 6.85536C5.95405 6.66736 5.97249 6.4043 6.13876 6.23837C6.3047 6.0721 6.56775 6.05366 6.75575 6.19458L32.9046 32.3434C32.9941 32.4319 33.0441 32.5528 33.0441 32.6786C33.0441 32.8043 32.9941 32.9252 32.9046 33.0137C32.814 33.0987 32.6935 33.1444 32.5694 33.1411L32.5694 33.1411Z" fill="white"/>
<path d="M11.9481 12.5198H11.8819H11.8822C11.7535 12.5037 11.6373 12.4355 11.5602 12.3312C11.4835 12.2265 11.4532 12.0951 11.4763 11.9677L12.1558 7.16272C12.1924 6.90657 12.4281 6.72779 12.6846 6.76138C12.8094 6.77784 12.9223 6.84336 12.9987 6.94345C13.0748 7.04354 13.108 7.16997 13.0906 7.29476L12.4202 12.0997C12.3936 12.3401 12.1898 12.5211 11.9481 12.5198L11.9481 12.5198Z" fill="white"/>
<path d="M7.12845 13.1848C6.89008 13.1871 6.68759 13.0106 6.65664 12.7742C6.62306 12.5181 6.80184 12.2824 7.05765 12.2458L11.8675 11.5755C12.1279 11.5389 12.3689 11.7207 12.4055 11.9814C12.442 12.2419 12.2603 12.4829 11.9995 12.5194L7.19457 13.1802L7.12845 13.1848Z" fill="white"/>
<path d="M27.0519 27.6239C26.7911 27.6424 26.565 27.4458 26.5469 27.1851C26.5284 26.9243 26.725 26.6981 26.9857 26.68L31.8049 26.0192C31.9296 26.0018 32.0561 26.0347 32.1562 26.1111C32.2562 26.1871 32.3218 26.3004 32.3382 26.4252C32.3718 26.6813 32.193 26.9171 31.9369 26.9536L27.1319 27.6239H27.0519Z" fill="white"/>
<path d="M26.3913 32.4435H26.3251C26.2003 32.427 26.087 32.3615 26.011 32.2614C25.9346 32.1613 25.9017 32.0349 25.9191 31.9101L26.5799 27.1006C26.6165 26.8398 26.8575 26.6581 27.1179 26.6946C27.3786 26.7312 27.5604 26.9722 27.5238 27.2326L26.8535 32.0376C26.8209 32.2687 26.6244 32.4412 26.3912 32.4435L26.3913 32.4435Z" fill="white"/>
<path d="M6.43057 33.1416C6.30513 33.1422 6.1843 33.0932 6.0954 33.0046C6.00585 32.916 5.95581 32.7955 5.95581 32.6694C5.95581 32.5437 6.00585 32.4232 6.0954 32.3346L32.2442 6.19507C32.4322 6.05415 32.6953 6.07259 32.8612 6.23885C33.0275 6.4048 33.0459 6.66785 32.905 6.85585L6.75619 33.0047C6.66927 33.0909 6.55272 33.14 6.43057 33.1416L6.43057 33.1416Z" fill="white"/>
<path d="M31.8715 13.1848H31.8053L27.0004 12.5194C26.8753 12.502 26.762 12.4355 26.6859 12.3344C26.6099 12.2336 26.577 12.1065 26.5944 11.9814C26.631 11.7207 26.872 11.5389 27.1324 11.5755L31.9374 12.255C32.1935 12.2916 32.3723 12.5273 32.3387 12.7838C32.3038 13.0146 32.1049 13.1851 31.8715 13.1848H31.8715Z" fill="white"/>
<path d="M27.052 12.5198C26.815 12.5221 26.6132 12.3486 26.5799 12.1139L25.9191 7.29475C25.9017 7.16997 25.9346 7.04354 26.011 6.94345C26.087 6.84336 26.2003 6.77785 26.3251 6.76138C26.5812 6.72779 26.817 6.90658 26.8535 7.16272L27.5238 11.9677C27.5472 12.0931 27.5186 12.2225 27.4448 12.3266C27.3711 12.4306 27.2581 12.5004 27.132 12.5198L27.052 12.5198Z" fill="white"/>
<path d="M12.6087 32.4435C12.372 32.4458 12.1702 32.2723 12.1369 32.0376L11.4761 27.2326C11.4396 26.9722 11.6213 26.7312 11.8821 26.6946C12.1425 26.6581 12.3835 26.8398 12.42 27.1006L13.0808 31.9055C13.0983 32.0303 13.0654 32.1567 12.989 32.2568C12.9129 32.3569 12.7997 32.4224 12.6749 32.4389L12.6087 32.4435Z" fill="white"/>
<path d="M11.9481 27.6239H11.8819L7.06311 26.9536C6.80696 26.9171 6.62818 26.6813 6.66177 26.4252C6.67823 26.3004 6.74375 26.1871 6.84384 26.1111C6.94393 26.0347 7.07036 26.0018 7.19515 26.0192L12.0001 26.68C12.2609 26.6945 12.4604 26.9174 12.4462 27.1778C12.4317 27.4386 12.2088 27.6384 11.9481 27.6239H11.9481Z" fill="white"/>
</svg>
