<svg width="24" height="31" viewBox="0 0 24 31" fill="none" xmlns="http://www.w3.org/2000/svg">
<path d="M0.583119 6.98756C0.894204 7.7591 1.27419 8.32802 1.74442 8.72681C2.44629 9.32194 3.31912 9.51462 4.33924 9.30017C4.6841 9.22791 5.0068 9.13134 5.29816 9.01411C6.25804 8.62609 6.7899 8.05029 7.21753 7.58806C7.40281 7.38683 7.5783 7.19721 7.76289 7.05092C7.91538 6.92946 8.05872 6.84116 8.19011 6.78843C8.3153 6.73808 8.42606 6.72245 8.49373 6.7461C8.51289 6.75257 8.56386 6.77059 8.60658 6.87711C8.61902 6.90622 8.62808 6.93747 8.63641 6.97501C8.63708 6.97696 8.66937 7.16426 8.12197 7.72992C7.92658 7.93342 7.69449 8.15051 7.46928 8.36088C7.24113 8.57395 7.00481 8.7942 6.79991 9.00725C5.85024 9.99641 5.46004 11.2486 5.8265 12.1726L5.83357 12.1932C5.87304 12.3079 5.98377 12.562 6.28352 12.9745C6.29349 12.988 6.30854 13.0029 6.31997 13.0171C5.79447 13.418 4.8562 14.4746 5.58527 16.5925C6.14202 18.2099 7.43179 18.7049 8.59272 18.7407C8.13089 19.3047 7.73843 20.2362 8.21436 21.6187C9.01403 23.9417 11.2386 23.9913 12.4533 23.6652C12.578 23.9247 12.7798 24.1575 13.0404 24.3528C13.0925 24.715 13.1925 25.1159 13.345 25.5589C13.3618 25.6076 13.3821 25.6512 13.4001 25.6985C13.2129 25.7607 13.0235 25.8346 12.8301 25.9293C12.0992 26.2874 11.6548 26.826 11.5083 27.53C11.4106 28.0019 11.4503 28.5348 11.6293 29.1601C11.9002 30.1004 12.8824 30.6682 13.7692 30.4154C13.8833 30.3826 13.9935 30.3372 14.0957 30.2805C14.5473 30.0355 14.7274 29.5864 14.5791 29.0819C14.5172 28.867 14.408 28.6762 14.3326 28.5642C14.2801 28.4862 14.1787 28.3469 14.0687 28.2606C14.0574 28.2488 14.028 28.212 13.9949 28.1573C13.9455 28.0751 13.9046 27.9837 13.8795 27.8967C13.8573 27.8187 13.8496 27.7464 13.8599 27.6985C13.8652 27.6696 13.8733 27.6537 13.9066 27.6343C13.9648 27.5997 14.0309 27.5724 14.1109 27.5495C14.27 27.5034 14.4773 27.4816 14.7337 27.4742C14.8675 27.5578 15.0082 27.6299 15.1562 27.6886C16.1048 28.0647 17.0795 27.8184 17.5979 27.6279C17.8528 28.1168 18.2332 28.4558 18.7372 28.6327C20.474 29.2422 23.0517 27.6309 23.1602 27.5623C23.3098 27.4675 23.3748 27.2823 23.3171 27.1146L16.1017 6.15425L14.5331 1.20536L14.53 1.19627C14.4976 1.10239 14.4298 1.02411 14.3404 0.979402C14.2484 0.93291 14.1416 0.92563 14.0445 0.959068L10.4614 2.19224C10.4573 2.19365 10.453 2.19514 10.4488 2.19685C10.4295 2.2042 9.07137 2.74843 8.59987 4.00685C8.30425 4.02393 8.0048 4.08612 7.7127 4.20409C7.41023 4.32636 7.12354 4.50224 6.86243 4.72715L6.58927 4.96128C5.54564 5.86232 4.8556 6.45727 4.35312 6.65923C4.25561 6.69861 4.16635 6.72329 4.0826 6.73373C4.03302 6.74015 4.01187 6.73001 3.98356 6.70612C3.93555 6.66505 3.88587 6.58682 3.8468 6.49017C3.80385 6.38228 3.77355 6.25842 3.75836 6.13346C3.74866 6.05817 3.74895 5.99926 3.75147 5.97637C3.79544 5.81098 3.78763 5.58234 3.77877 5.46029C3.76795 5.30867 3.7379 5.07728 3.65629 4.8402C3.64519 4.80797 3.63323 4.7753 3.62136 4.74575C3.37224 4.11698 2.83653 3.80633 2.19025 3.91458C2.04013 3.93819 1.89264 3.97928 1.75196 4.03594C0.658096 4.47903 0.114491 5.82761 0.583185 6.98742L0.583119 6.98756ZM6.30881 16.3438C5.59053 14.2572 6.81397 13.5832 6.93366 13.5224C7.20535 13.6931 7.51052 13.838 7.77305 13.8943C8.28755 14.0041 8.81488 13.9995 9.22071 13.8808C9.31155 13.8544 9.39584 13.8251 9.48521 13.7888C9.55122 13.762 9.58684 13.7417 9.62021 13.7213C9.63308 13.713 9.64445 13.7059 9.68342 13.6891L9.69834 13.6833C9.7623 13.6603 9.8196 13.6384 9.87003 13.6084C10.2306 13.9649 10.6363 14.1932 11.0401 14.3272C10.6192 14.5807 10.2384 14.9223 9.9727 15.3835C9.58219 16.0626 9.51153 16.8879 9.76133 17.8419C9.16335 17.9991 7.01667 18.4 6.30882 16.3438L6.30881 16.3438ZM8.93744 21.3698C8.3089 19.5439 9.55391 18.7914 10.0147 18.5821C10.4474 19.5901 11.4224 20.8585 13.5827 20.9365C13.2868 21.0631 12.9742 21.3043 12.7195 21.6075C12.4892 21.8838 12.2492 22.3717 12.2604 22.7327C12.2633 22.8036 12.2679 22.8613 12.2729 22.9206C11.7378 23.0583 9.65207 23.4458 8.93745 21.3698L8.93744 21.3698ZM14.1524 25.5291C14.1232 25.4583 14.095 25.3862 14.0688 25.3101C14.0037 25.121 13.9522 24.9488 13.9102 24.7895C14.0941 24.8479 14.2848 24.8972 14.487 24.9263C14.7159 24.9588 14.9668 24.9811 15.2095 25.003C15.4494 25.0238 15.697 25.0457 15.9171 25.0777C16.5242 25.1629 16.5948 25.2932 16.5959 25.2967C16.6076 25.3215 16.6173 25.3445 16.6243 25.3699C16.6487 25.4562 16.6262 25.4915 16.6182 25.5039C16.5876 25.5515 16.512 25.5954 16.4101 25.6249C16.3039 25.6552 16.1728 25.6701 16.0201 25.6687C15.837 25.6668 15.6379 25.6347 15.4271 25.6006C15.072 25.5421 14.6538 25.475 14.1524 25.5291L14.1524 25.5291ZM13.3043 28.0617C13.3118 28.0862 13.3189 28.1104 13.3272 28.1346C13.3759 28.2761 13.4389 28.3923 13.482 28.4639C13.5252 28.5361 13.6101 28.6647 13.7057 28.7351C13.7147 28.7421 13.7392 28.7698 13.7692 28.8076C13.5616 28.7368 13.346 28.7423 13.346 28.7423L13.8928 28.9918C13.9273 29.052 13.9623 29.1198 13.9893 29.1983C13.9947 29.2139 13.9995 29.2299 14.0049 29.2479C14.0948 29.5547 13.9477 29.6804 13.808 29.7563C13.7428 29.7923 13.6745 29.8209 13.6044 29.8409C13.0375 30.0027 12.3783 29.6118 12.2036 28.9952C12.0514 28.4654 12.0155 28.0257 12.0929 27.6516C12.201 27.1304 12.5281 26.7425 13.0929 26.4655C13.3093 26.3598 13.5212 26.2767 13.723 26.2189C14.3721 26.0329 14.859 26.1126 15.3298 26.1891C15.5644 26.2274 15.7858 26.2634 16.0143 26.2649C16.2239 26.2673 16.4124 26.2447 16.5744 26.1979C16.8193 26.1279 17.0078 25.9998 17.1196 25.827C17.236 25.6464 17.2627 25.4308 17.198 25.205C17.1829 25.1519 17.1624 25.0966 17.137 25.0439C16.9625 24.665 16.4374 24.5462 15.9997 24.4851C15.7655 24.4513 15.5096 24.4283 15.2617 24.4069C15.0267 24.3864 14.7833 24.3652 14.5706 24.3344C13.7526 24.2175 13.0914 23.7932 12.9375 23.2764C12.9341 23.2637 12.9283 23.2469 12.9233 23.2343C12.9144 23.2086 12.8691 23.0616 12.8573 22.7131C12.8526 22.5617 12.9918 22.2133 13.1776 21.9909C13.3739 21.7563 13.6277 21.5581 13.8379 21.4742C13.8893 21.4541 13.9354 21.4382 13.9895 21.4227L14.008 21.4187C14.0397 21.4151 14.0752 21.4101 14.1432 21.3933C14.17 21.4184 14.1802 21.443 14.1883 21.4665C14.2025 21.5079 14.2106 21.5607 14.2186 21.617C14.227 21.6759 14.2374 21.742 14.2568 21.8096C14.2846 21.9094 14.2978 21.9992 14.3003 22.068C14.2293 22.1135 14.1827 22.1658 14.1373 22.2434C14.1309 22.2543 14.1238 22.2674 14.1099 22.2855C13.9673 22.473 13.9248 22.6981 13.9849 22.9613C13.9887 22.9752 13.9924 22.9899 13.9956 23.0002C14.0875 23.3255 14.3474 23.5392 14.7635 23.645C15.1126 23.7319 15.5443 23.7328 15.8819 23.7238C16.5479 23.7058 17.3263 23.8204 18.0515 24.8043C18.1368 24.9192 18.1998 25.0475 18.2378 25.1803C18.4377 25.8769 17.9591 26.6502 17.1939 26.8701C17.0118 26.9224 16.8154 26.9445 16.6122 26.9346L16.331 26.9211C15.1553 26.8636 14.4447 26.829 13.9435 26.9734C13.8145 27.0106 13.7023 27.0579 13.5985 27.1196C13.4251 27.2233 13.3125 27.3813 13.2729 27.5774C13.2436 27.7237 13.2543 27.8868 13.3043 28.0617L13.3043 28.0617ZM10.7182 2.91161L13.921 1.80906L15.3746 6.39349L22.492 27.0686C21.6775 27.528 20.0141 28.271 18.9883 27.91C18.5936 27.7715 18.3242 27.4781 18.1617 27.0164C18.7436 26.525 19.0241 25.7548 18.8123 25.0166C18.8039 24.9873 18.7948 24.958 18.7847 24.9286C18.7261 24.7586 18.6411 24.5974 18.532 24.4506C18.0633 23.8136 17.3358 23.0878 15.8655 23.1276C15.7349 23.1312 15.5887 23.1319 15.4425 23.1275C15.276 22.908 15.1976 22.7182 15.1703 22.6391C14.9548 22.013 14.7844 21.2037 15.1501 20.809C15.7692 20.6919 16.1886 20.5369 16.2068 20.5299C16.3712 20.4685 16.4728 20.3031 16.4528 20.1285C16.4322 19.9546 16.297 19.8158 16.123 19.7924C16.0437 19.7822 15.3647 19.706 14.8156 20.0913C12.0881 20.5339 11.0231 19.2072 10.6102 18.0078C10.296 17.0951 10.3043 16.3405 10.6352 15.7658C11.1152 14.9318 12.1989 14.6027 12.8118 14.4798C12.9447 14.4631 13.073 14.4412 13.1934 14.4143C13.2243 14.4092 13.2446 14.4037 13.2599 14.3987C13.9725 15.0342 15.0935 15.2963 15.8347 15.0411C16.0348 14.9722 16.1402 14.7549 16.0714 14.555C16.0027 14.3554 15.7853 14.249 15.5856 14.3177C14.9611 14.5327 13.7623 14.1101 13.4376 13.3994C13.1223 12.7065 13.7351 11.8696 15.1645 11.0402C15.3253 10.9474 15.3925 10.7551 15.3342 10.5857C15.3261 10.5624 15.3162 10.5399 15.303 10.5178C15.1971 10.3351 14.9637 10.2729 14.7807 10.3789C12.3324 11.7986 12.4508 13.0768 12.7417 13.7145C12.7238 13.718 12.7097 13.7199 12.6912 13.7239C11.9532 13.811 10.7238 13.7451 10.0198 12.5667C9.97272 12.4573 9.91988 12.3593 9.86666 12.2736C9.8234 12.1782 9.78291 12.0774 9.74582 11.9697C9.36155 10.8534 9.56208 10.0434 9.94557 9.46548C10.1617 9.2793 10.3745 9.0616 10.5641 8.80056C11.008 8.45101 11.452 8.28221 11.5635 8.24385C12.0013 8.09312 11.9844 7.83252 11.9357 7.69082C11.8546 7.45544 11.6399 7.42433 11.4672 7.39911C11.3908 7.38792 11.2917 7.3729 11.1778 7.34847C11.2365 7.03546 11.2666 6.68904 11.2558 6.29928C11.2496 6.06477 11.2081 5.83516 11.1331 5.61733C11.1203 5.58034 11.1068 5.54386 11.0918 5.50739C10.7938 4.76942 10.1529 4.26508 9.40317 4.07916C9.79098 3.30081 10.6297 2.94725 10.7182 2.91143L10.7182 2.91161ZM8.80464 11.2614C8.77552 11.2506 8.74132 11.2384 8.69577 11.227C8.66059 11.2176 8.60234 11.2023 8.53658 11.0626L8.52537 11.0342C8.50787 10.9834 8.46118 10.8478 8.69162 10.5507C8.7232 10.5103 8.76369 10.4697 8.80077 10.4291C8.7704 10.6895 8.76897 10.9659 8.80464 11.2614L8.80464 11.2614ZM2.31329 4.66947C2.51216 4.63634 2.75936 4.64731 2.91122 5.03082C2.95837 5.14742 2.98416 5.26873 2.99958 5.37327L2.64298 6.05668C2.64298 6.05668 2.86617 5.89177 3.02015 5.65584C3.01949 5.7214 3.01493 5.76579 3.01254 5.78065C2.97092 5.92758 2.98652 6.12401 2.99962 6.22815C3.01491 6.35549 3.05411 6.56848 3.13791 6.77676C3.22525 6.99254 3.34263 7.16482 3.48783 7.28857C3.68228 7.45417 3.92022 7.5247 4.17808 7.4928C4.32969 7.47352 4.48066 7.43268 4.6395 7.36905C5.25948 7.11957 5.94776 6.52525 7.0892 5.54072L7.36192 5.30601C7.55931 5.13571 7.77392 5.00351 7.99947 4.91232C8.94453 4.5311 10.0367 4.93503 10.3835 5.79488C10.4491 5.95934 10.487 6.13769 10.4917 6.32143C10.536 7.88477 9.8405 8.61349 9.15368 9.11994C8.80701 9.37672 8.37205 9.71785 8.08796 10.0813C7.76686 10.496 7.67031 10.9009 7.80205 11.2836C7.80815 11.3013 7.81476 11.3184 7.81988 11.3312C7.82671 11.3489 7.83462 11.3663 7.846 11.3909C7.98921 11.6959 8.20954 11.8896 8.50253 11.9668C8.52894 11.9739 8.54645 11.9812 8.56091 11.9873C8.66689 12.0295 8.75481 12.0459 8.8636 12.0351C8.9143 12.1065 8.97288 12.2078 9.02315 12.3313C9.06282 12.4297 9.11992 12.5196 9.18004 12.6148C9.24257 12.7136 9.30688 12.8153 9.33935 12.9096C9.35097 12.9434 9.35732 12.9717 9.35902 12.997C9.28914 13.0288 9.25174 13.0508 9.21362 13.0744L9.19964 13.0802C9.13297 13.1072 9.0732 13.1283 9.00632 13.1477C8.72717 13.2288 8.31596 13.2285 7.93338 13.1468C7.58782 13.0729 7.02923 12.698 6.90168 12.5242C6.63956 12.1641 6.56873 11.9801 6.55518 11.9407L6.55496 11.9401C6.55294 11.9335 6.55076 11.9258 6.54853 11.9193C6.54692 11.9097 6.54215 11.9029 6.53837 11.894C6.28312 11.2524 6.61831 10.3014 7.3519 9.53783C7.54228 9.33945 7.77043 9.12638 7.99126 8.92017C8.22429 8.703 8.46464 8.47822 8.67335 8.26071C9.0671 7.85391 9.50295 7.31988 9.38131 6.80276C9.3637 6.72631 9.34121 6.65396 9.31592 6.59031C9.20255 6.31018 9.00549 6.11451 8.74478 6.02352C8.49715 5.93818 8.20646 5.95694 7.90405 6.07943C7.70391 6.16018 7.49596 6.28573 7.28781 6.45224C7.0569 6.63481 6.86195 6.84589 6.65537 7.06896C6.2409 7.51749 5.8126 7.98143 5.01134 8.30514C4.7622 8.40591 4.48285 8.48925 4.18134 8.55239C3.39378 8.71848 2.75832 8.58468 2.23911 8.1442C1.86534 7.8274 1.55561 7.35573 1.29205 6.70188C0.98349 5.94329 1.3394 5.0288 2.0385 4.74553C2.12556 4.71024 2.21706 4.68503 2.31328 4.66933L2.31329 4.66947Z" fill="white"/>
<path d="M1.76842 5.90517C2.12819 5.78133 2.31392 6.32087 1.95415 6.44471C1.59438 6.56856 1.40865 6.02902 1.76842 5.90517Z" fill="white"/>
<path d="M12.7346 28.8344C13.0154 28.7378 13.1604 29.159 12.8795 29.2556C12.5987 29.3523 12.4537 28.9311 12.7346 28.8344Z" fill="white"/>
</svg>
