<svg width="53" height="73" viewBox="0 0 53 73" fill="none" xmlns="http://www.w3.org/2000/svg">
<path d="M5.03376 11.2095L5.03376 7.00483L6.96564 3.93656L9.12479 2.68653L11.8521 0.981934L16.0568 2.68653L19.3523 2.11833H21.5115L23.4434 2.11833L22.5342 3.93656L26.0571 4.84568L28.2162 6.32299L32.7618 7.00483L34.3528 8.59578L36.171 11.2095L35.6028 13.1414H39.1256L42.9894 15.5278L45.8303 16.3233H47.6486L49.6941 19.2779H51.1714L52.3078 22.3462L51.1714 24.3917L49.6941 26.3235L47.6486 27.4599V29.96L46.9667 33.5965L45.8303 36.892L44.353 38.7103H41.3984L39.1256 40.1876L37.5347 42.1194V44.8468L35.6028 47.6878H33.4436V49.3924L31.739 51.5515H28.2162L28.7844 52.9152L29.6935 54.0516L28.2162 55.3016H25.2616L24.0116 58.1426H22.5342L23.4434 59.7336L22.5342 61.8927L20.6024 63.37L22.5342 65.1883L20.6024 67.3474V69.3929L23.4434 70.4157L20.6024 71.4384L19.9205 70.4157H18.7841L16.7386 69.3929L15.4886 65.1883V64.0519L16.0568 63.37L15.4886 60.87V59.7336L14.9204 60.87V58.1426V57.0062L14.2386 55.3016L15.4886 50.756L14.9204 48.4832V45.415L15.4886 43.5968L14.9204 42.1194V39.6194V34.7329L13.5567 33.5965L10.7157 31.8919L7.76111 30.8691V28.71L6.2838 27.4599L3.89737 23.1416L2.42005 22.3462L0.829102 19.9597L2.98825 18.4824V17.4597H1.51094V16.3233L2.42005 14.3914L3.89737 13.1414L5.03376 11.2095Z" stroke="white"/>
</svg>
