<svg width="33" height="36" viewBox="0 0 33 36" fill="none" xmlns="http://www.w3.org/2000/svg">
<path d="M17.566 1.48345C18.6968 1.78646 19.9618 2.55696 21.3079 3.67665C22.6444 4.78844 24.0096 6.20082 25.3424 7.72105C26.6737 9.23949 27.9595 10.8503 29.1406 12.3541C29.3893 12.6708 29.6339 12.9834 29.8735 13.2896C30.4972 14.0867 31.0871 14.8406 31.6285 15.5113C30.8225 15.822 29.9327 16.1807 28.9918 16.5599C28.6329 16.7046 28.2666 16.8523 27.8946 17.0014C26.1197 17.7131 24.2006 18.4652 22.2885 19.1146C20.3741 19.7648 18.4856 20.3054 16.7724 20.6C15.0469 20.8968 13.5665 20.9316 12.436 20.6287C7.14925 19.2121 4.01179 13.7779 5.42838 8.49111C6.84497 3.20431 12.279 0.0668086 17.566 1.48345ZM11.5947 23.7681C13.574 24.2984 15.9531 24.1139 18.396 23.5951C19.4387 24.8003 20.4463 26.0628 21.3791 27.2499C21.6003 27.5314 21.8178 27.8093 22.0307 28.0815C22.5281 28.717 23.0008 29.321 23.4382 29.8653C22.784 30.1191 22.0689 30.4073 21.3166 30.7106C21.0093 30.8345 20.6957 30.9609 20.3775 31.0885C18.8585 31.6976 17.218 32.3405 15.584 32.8954C13.9478 33.451 12.3372 33.9118 10.8785 34.1627C9.40766 34.4156 8.15842 34.4427 7.21291 34.1894C2.74573 32.9924 0.0934844 28.4001 1.29075 23.9319C1.82998 21.9194 3.05709 20.277 4.65269 19.1867C6.34945 21.3491 8.73559 23.002 11.5947 23.7681Z" stroke="white" stroke-width="1.5"/>
</svg>
