<svg width="33" height="33" viewBox="0 0 33 33" fill="none" xmlns="http://www.w3.org/2000/svg">
<path d="M2.93477 23.5811C3.6294 23.8623 4.30005 24.2126 5.00832 24.4549C6.90705 24.4816 8.79855 22.6892 9.76896 21.1415C9.50835 21.8295 12.0478 27.7766 12.3917 25.907L12.3919 25.9073C11.0217 24.2545 10.2457 22.1899 10.1886 20.0438C10.3214 19.5443 10.4096 19.034 10.4519 18.519C11.2717 19.4962 11.7937 21.0029 13.1502 21.3179C13.2893 21.3366 13.4183 21.2421 13.4417 21.1037C13.4655 20.9655 13.3751 20.8335 13.2376 20.8051C11.8919 20.3505 11.4029 18.6933 10.5033 17.6926C10.5382 15.86 10.5775 13.8675 10.4356 12.1137L10.4359 12.1134C10.374 10.9961 10.2415 9.8833 10.0383 8.7825C11.9703 12.7759 13.2712 17.0445 13.8954 21.4366C15.192 25.9412 13.1909 28.9521 9.20278 31.0666C8.88793 32.9508 14.1962 27.8057 14.3276 27.0364C14.5971 27.6211 13.5442 33.6145 14.574 32.2817L14.5742 32.282C14.9325 29.14 14.9403 25.9676 14.5972 22.8239C14.7351 23.5842 20.5493 31.6393 20.4211 29.4731L20.4211 29.4725C19.2712 28.419 18.218 27.2644 17.2747 26.0226C18.1503 26.3885 19.3236 27.0214 20.2234 26.453C20.5919 26.2546 22.4943 24.6118 21.1879 24.8807C20.5187 25.6031 19.7648 26.5065 18.6971 26.0188C13.1869 24.2081 14.3821 16.9125 12.1921 12.5463C12.4329 12.9745 15.5833 15.6744 15.0188 14.1408C13.5447 13.4367 12.5183 12.1497 11.56 10.9163C10.8889 9.0951 9.82268 7.45274 9.13448 5.64815C12.1765 8.71194 15.8395 11.6971 16.4363 16.2693L16.4361 16.269C15.8194 17.2965 15.1442 18.2877 14.4138 19.2375C14.4394 20.7678 16.2569 17.3976 16.5541 17.0403L16.5544 17.0401C16.6277 17.7959 16.6557 18.5555 16.6376 19.3148C16.3857 20.0633 15.939 20.7316 15.343 21.25C15.2291 21.3352 15.202 21.4945 15.2812 21.6126C15.9676 21.9317 16.539 20.5802 16.8819 20.0891C17.0215 20.5187 18.3536 23.2243 18.4692 21.8374L18.4697 21.8375C17.9005 21.0859 17.4582 20.2466 17.1593 19.3527C17.2757 16.7613 16.6783 14.1878 15.4323 11.913C15.4539 11.9034 15.4739 11.8915 15.4921 11.8764C17.5585 14.9404 22.4816 19.2737 18.7557 22.8319C18.506 23.0498 18.8038 23.4763 19.0562 23.256L19.0561 23.2565C20.0729 22.3531 20.6552 21.0583 20.6562 19.698C21.2551 20.1471 23.5696 27.3198 23.8158 25.4768C22.2969 21.3321 20.2171 17.4155 17.6347 13.8359C19.3001 15.4694 20.9805 17.0624 22.753 18.5865C24.0275 20.7784 25.316 23.193 25.3172 25.8811C26.9109 27.1661 24.5086 19.8288 23.8303 19.4408C24.4951 19.9415 25.2086 20.3748 25.9597 20.7333C26.6211 22.14 27.7779 23.434 28.2483 24.883C27.8166 25.6753 27.1931 26.3983 26.708 27.1747C26.745 28.5712 28.0338 26.0256 28.3344 25.7134C29.5691 24.2061 27.2608 22.5036 26.7345 21.0486L26.7344 21.0491C28.3939 21.7037 30.2544 21.612 31.8415 20.7975C32.1329 20.6341 31.83 20.2112 31.5407 20.3732C24.8533 23.1008 19.1828 13.8968 14.7037 10.1071C19.8533 12.2182 21.3962 12.3308 24.7424 17.2951C26.5508 17.7432 21.4442 12.6856 21.0134 12.2404C21.6094 12.3373 22.2092 12.4101 22.812 12.4532C23.4138 13.5512 24.3122 14.5567 24.929 15.6796C26.3151 16.1172 23.8503 13.2551 23.6375 12.8213L23.637 12.8212C25.6092 13.8254 27.2402 15.3908 28.3245 17.3201C30.2452 17.5736 24.9791 12.5381 24.1437 12.5035C28.1448 12.6086 31.752 11.0772 24.8797 11.9738C27.466 11.4282 26.8093 6.95777 26.1055 8.35079C26.8677 14.2292 18.5089 11.3939 15.5248 9.91753L15.5253 9.91762C16.3628 9.63652 17.0312 8.99562 17.3472 8.17058C17.4648 7.85915 16.9924 7.64178 16.8733 7.95608L16.8735 7.95587C16.7142 8.38272 16.4416 8.75777 16.0845 9.04065C15.7277 9.32379 15.3002 9.50409 14.8486 9.56187C12.9212 8.6761 11.7456 6.83817 10.3056 5.35399L10.3053 5.3537C12.4015 6.30753 14.712 6.69137 17.0039 6.46745C22.6429 10.427 25.9067 11.326 17.8551 6.39892C18.8831 6.3043 19.9029 6.14611 20.92 5.9747C21.8278 6.78504 22.7354 7.59567 23.6432 8.40601C25.0099 8.52211 22.5114 6.79983 22.2533 6.46831C23.7202 7.04819 25.1257 6.2899 25.8693 4.98259C26.0685 4.62182 28.0914 2.57003 26.7872 2.94619C25.523 4.53096 24.3104 7.11322 21.8926 5.80632C23.2832 5.57027 22.6613 4.02418 22.5673 3.07181C22.4189 2.65234 22.3572 -0.626366 21.6762 0.583248C21.8643 4.35566 23.9893 5.39168 19.1095 5.73113C15.8268 6.19548 12.1649 6.21403 9.36752 4.18921C8.63199 3.40426 7.08707 0.650012 6.12631 0.87082C5.92839 0.963537 5.58611 1.10476 5.717 1.38101C6.0476 2.66226 7.4725 3.85842 8.06949 5.16927C8.59718 7.93852 7.31143 10.7852 6.43659 13.3765C6.77727 14.773 7.51365 11.8382 7.66904 11.4684C7.88334 11.7407 8.25269 12.5033 8.65937 12.1732C8.8455 11.9283 8.55211 11.7659 8.40743 11.6057C8.23409 11.4778 8.06249 11.0237 7.86717 10.8171L7.86768 10.8172C8.34804 9.36034 8.64287 7.8487 8.74477 6.31827C11.0011 10.8522 9.82698 16.3095 4.57981 17.9003C3.22825 17.3822 1.92773 16.7404 0.69454 15.9828C0.56366 15.9248 0.410218 15.9824 0.350333 16.1125C0.868207 17.1455 2.65734 17.4943 3.68572 18.0979C-3.64166 18.7521 7.31957 20.4742 9.97648 13.7738C10.0053 14.9636 10.0122 16.1533 9.99711 17.3426L9.99732 17.3429C8.73501 18.4154 7.34395 19.3263 5.85578 20.0538C5.06295 21.6908 9.59845 18.3734 9.97266 18.0264C9.92666 19.591 9.46619 21.2303 8.23562 22.263C7.11495 23.1702 4.98856 20.4475 3.91908 20.6987C3.79925 21.4354 6.64118 22.5288 7.35941 22.9418C6.62275 23.3026 5.88917 24.1782 5.03096 23.9164C4.6332 23.8413 2.24845 22.4119 2.93538 23.5811L2.93477 23.5811Z" fill="white" stroke="white" stroke-width="0.5"/>
</svg>
